<svg xmlns="http://www.w3.org/2000/svg" width="400" height="300" viewBox="0 0 400 300">
  <defs>
    <linearGradient id="bg1" x1="0%" y1="0%" x2="100%" y2="100%">
      <stop offset="0%" style="stop-color:#10B981;stop-opacity:1" />
      <stop offset="100%" style="stop-color:#059669;stop-opacity:1" />
    </linearGradient>
  </defs>
  <rect width="400" height="300" fill="url(#bg1)"/>
  <g transform="translate(50, 60)">
    <path d="M20,120 Q30,80 80,60 L220,60 Q280,60 300,90 L310,120 Q310,140 290,140 L30,140 Q10,140 10,120 Z" fill="#FFFFFF" stroke="#1e3a8a" stroke-width="3"/>
    <path d="M70,65 Q75,55 90,55 L180,55 Q200,55 205,65 L205,95 Q200,105 180,105 L90,105 Q70,105 70,95 Z" fill="#93C5FD" opacity="0.8"/>
    <path d="M210,65 Q215,55 230,55 L280,55 Q295,55 295,70 L295,95 Q295,105 280,105 L230,105 Q215,105 210,95 Z" fill="#93C5FD" opacity="0.8"/>
    <circle cx="80" cy="140" r="30" fill="#1F2937" stroke="#374151" stroke-width="3"/>
    <circle cx="80" cy="140" r="15" fill="#6B7280"/>
    <circle cx="240" cy="140" r="30" fill="#1F2937" stroke="#374151" stroke-width="3"/>
    <circle cx="240" cy="140" r="15" fill="#6B7280"/>
    <rect x="5" y="110" width="20" height="8" rx="2" fill="#FCD34D"/>
    <rect x="295" y="110" width="15" height="8" rx="2" fill="#EF4444"/>
    <text x="160" y="125" text-anchor="middle" font-family="Arial" font-size="16" font-weight="bold" fill="#1e3a8a">BYD</text>
  </g>
  <text x="200" y="250" text-anchor="middle" font-family="Arial" font-size="20" font-weight="bold" fill="#FFFFFF">BYD Dolphin</text>
</svg>
