<svg xmlns="http://www.w3.org/2000/svg" width="400" height="300" viewBox="0 0 400 300">
  <defs>
    <linearGradient id="bg-default" x1="0%" y1="0%" x2="100%" y2="100%">
      <stop offset="0%" style="stop-color:#64748B;stop-opacity:1" />
      <stop offset="100%" style="stop-color:#475569;stop-opacity:1" />
    </linearGradient>
  </defs>
  <rect width="400" height="300" fill="url(#bg-default)"/>
  <g transform="translate(80, 70)">
    <path d="M10,100 Q20,55 85,40 L195,40 Q260,40 245,80 L250,100 Q250,115 235,115 L25,115 Q10,115 5,100 Z" fill="#FFFFFF" stroke="#334155" stroke-width="3"/>
    <path d="M60,45 Q70,38 85,38 L150,38 Q165,38 170,45 L170,85 Q165,92 150,92 L85,92 Q70,92 65,85 Z" fill="#94A3B8" opacity="0.8"/>
    <path d="M175,45 Q180,38 195,38 L230,38 Q245,38 245,50 L245,85 Q245,92 230,92 L195,92 Q180,92 175,85 Z" fill="#94A3B8" opacity="0.8"/>
    <circle cx="65" cy="115" r="28" fill="#1F2937" stroke="#475569" stroke-width="3"/>
    <circle cx="65" cy="115" r="14" fill="#64748B"/>
    <circle cx="190" cy="115" r="28" fill="#1F2937" stroke="#475569" stroke-width="3"/>
    <circle cx="190" cy="115" r="14" fill="#64748B"/>
    <text x="127" y="100" text-anchor="middle" font-family="Arial" font-size="30" font-weight="bold" fill="#64748B">?</text>
  </g>
  <text x="200" y="245" text-anchor="middle" font-family="Arial" font-size="18" font-weight="bold" fill="#FFFFFF">Default</text>
</svg>
