<svg xmlns="http://www.w3.org/2000/svg" width="400" height="300" viewBox="0 0 400 300">
  <defs>
    <linearGradient id="bg4" x1="0%" y1="0%" x2="100%" y2="100%">
      <stop offset="0%" style="stop-color:#0EA5E9;stop-opacity:1" />
      <stop offset="100%" style="stop-color:#0369A1;stop-opacity:1" />
    </linearGradient>
  </defs>
  <rect width="400" height="300" fill="url(#bg4)"/>
  <g transform="translate(50, 60)">
    <path d="M15,120 Q25,70 90,50 L260,50 Q325,50 305,95 L315,120 Q315,140 295,140 L25,140 Q5,140 5,120 Z" fill="#FFFFFF" stroke="#0C4A6E" stroke-width="3"/>
    <path d="M75,55 Q85,45 100,45 L190,45 Q210,45 215,55 L215,95 Q210,105 190,105 L100,105 Q85,105 80,95 Z" fill="#7DD3FC" opacity="0.8"/>
    <path d="M220,55 Q225,45 240,45 L290,45 Q305,45 305,60 L305,95 Q305,105 290,105 L240,105 Q225,105 220,95 Z" fill="#7DD3FC" opacity="0.8"/>
    <circle cx="80" cy="140" r="32" fill="#111827" stroke="#0EA5E9" stroke-width="3"/>
    <circle cx="80" cy="140" r="16" fill="#0EA5E9"/>
    <circle cx="240" cy="140" r="32" fill="#111827" stroke="#0EA5E9" stroke-width="3"/>
    <circle cx="240" cy="140" r="16" fill="#0EA5E9"/>
    <text x="160" y="128" text-anchor="middle" font-family="Arial" font-size="18" font-weight="bold" fill="#0C4A6E">NIO</text>
  </g>
  <text x="200" y="250" text-anchor="middle" font-family="Arial" font-size="20" font-weight="bold" fill="#FFFFFF">NIO ET5</text>
</svg>
