<svg width="1600" height="1000" viewBox="0 0 1600 1000" fill="none" xmlns="http://www.w3.org/2000/svg">
<defs>
  <linearGradient id="bg" x1="0" y1="0" x2="1600" y2="1000" gradientUnits="userSpaceOnUse">
    <stop stop-color="#0D47D1"/>
    <stop offset="0.55" stop-color="#1565E9"/>
    <stop offset="1" stop-color="#1E40AF"/>
  </linearGradient>
  <linearGradient id="road" x1="0" y1="0" x2="0" y2="1">
    <stop stop-color="#7DA7FF" stop-opacity="0.4"/>
    <stop offset="1" stop-color="#7DA7FF" stop-opacity="0.1"/>
  </linearGradient>
  <filter id="blur" x="-20%" y="-20%" width="140%" height="140%">
    <feGaussianBlur stdDeviation="10"/>
  </filter>
</defs>
<rect width="1600" height="1000" fill="url(#bg)"/>
<circle cx="1450" cy="110" r="200" fill="#8BC3FF" fill-opacity="0.22" filter="url(#blur)"/>
<circle cx="220" cy="130" r="170" fill="#A9D2FF" fill-opacity="0.18" filter="url(#blur)"/>
<g opacity="0.28">
  <path d="M-120 770C140 620 420 640 700 760C980 880 1240 900 1720 760V980H-120V770Z" fill="url(#road)"/>
  <path d="M-120 830C140 690 420 710 700 830C980 950 1240 970 1720 830V980H-120V830Z" fill="#D7E6FF" fill-opacity="0.12"/>
</g>
<g opacity="0.45">
  <path d="M120 540L200 500L280 540L280 640L120 640V540Z" fill="#C9DCFF"/>
  <path d="M310 480L400 430L490 480V640H310V480Z" fill="#B8D1FF"/>
  <path d="M520 510L620 450L720 510V640H520V510Z" fill="#D3E3FF"/>
  <path d="M760 460L860 400L960 460V640H760V460Z" fill="#AFCBFF"/>
  <path d="M1010 500L1110 445L1210 500V640H1010V500Z" fill="#C9DCFF"/>
</g>
<g opacity="0.9">
  <circle cx="330" cy="315" r="12" fill="#F1F7FF"/>
  <circle cx="470" cy="240" r="12" fill="#F1F7FF"/>
  <circle cx="620" cy="300" r="12" fill="#F1F7FF"/>
  <circle cx="760" cy="220" r="12" fill="#F1F7FF"/>
  <circle cx="910" cy="280" r="12" fill="#F1F7FF"/>
  <circle cx="1060" cy="210" r="12" fill="#F1F7FF"/>
  <path d="M330 315L470 240L620 300L760 220L910 280L1060 210" stroke="#E8F1FF" stroke-width="4" stroke-linecap="round"/>
</g>
<g transform="translate(930 620)">
  <rect x="0" y="25" width="350" height="76" rx="24" fill="#EEF5FF" fill-opacity="0.95"/>
  <rect x="65" y="0" width="170" height="42" rx="14" fill="#EEF5FF" fill-opacity="0.95"/>
  <circle cx="85" cy="106" r="22" fill="#2B4EB7"/>
  <circle cx="268" cy="106" r="22" fill="#2B4EB7"/>
  <circle cx="85" cy="106" r="10" fill="#D9E8FF"/>
  <circle cx="268" cy="106" r="10" fill="#D9E8FF"/>
</g>
</svg>
